<?xml version="1.0" standalone="no"?>
<!DOCTYPE svg PUBLIC "-//W3C//DTD SVG 20010904//EN"
 "http://www.w3.org/TR/2001/REC-SVG-20010904/DTD/svg10.dtd">
<svg version="1.0" xmlns="http://www.w3.org/2000/svg"
 width="118.000000pt" height="118.000000pt" viewBox="0 0 118.000000 118.000000"
 preserveAspectRatio="xMidYMid meet">
<metadata>
Created by potrace 1.14, written by Peter Selinger 2001-2017
</metadata>
<g transform="translate(0.000000,118.000000) scale(0.100000,-0.100000)"
fill="#000000" stroke="none">
<path d="M581 1111 c-11 -7 -14 -46 -15 -188 l-1 -178 -241 -1 c-133 0 -249
-4 -258 -7 -14 -6 -16 -40 -16 -336 0 -291 2 -330 16 -335 24 -9 637 -7 652 3
11 7 14 58 14 249 l0 240 190 0 c152 -1 192 2 199 13 5 8 8 133 6 279 l-2 265
-265 2 c-146 2 -271 -1 -279 -6z m369 -271 l0 -100 -100 0 -100 0 0 100 0 100
100 0 100 0 0 -100z m-400 -440 l0 -160 -160 0 -160 0 0 160 0 160 160 0 160
0 0 -160z"/>
</g>
</svg>
