<?xml version="1.0" standalone="no"?>
<!DOCTYPE svg PUBLIC "-//W3C//DTD SVG 20010904//EN"
 "http://www.w3.org/TR/2001/REC-SVG-20010904/DTD/svg10.dtd">
<svg version="1.0" xmlns="http://www.w3.org/2000/svg"
 width="458.000000pt" height="458.000000pt" viewBox="0 0 458.000000 458.000000"
 preserveAspectRatio="xMidYMid meet">
<metadata>
Created by potrace 1.14, written by Peter Selinger 2001-2017
</metadata>
<g transform="translate(0.000000,458.000000) scale(0.100000,-0.100000)"
fill="#000000" stroke="none">
<path d="M1620 2297 l0 -773 30 1 30 0 0 772 0 773 -30 0 -30 0 0 -773z"/>
<path d="M2150 2983 c0 -6 -8 -12 -17 -11 -18 0 -53 -6 -103 -18 -14 -3 -36
-8 -50 -11 -60 -11 -131 -79 -134 -129 0 -13 -4 -24 -8 -24 -4 0 -5 -12 -2
-27 9 -50 28 -93 41 -93 7 0 13 -5 13 -11 0 -8 54 -37 83 -45 4 -1 9 -3 12 -4
7 -4 16 -6 60 -15 22 -4 45 -10 50 -14 6 -3 12 -6 15 -6 3 0 19 -6 37 -14 37
-15 49 -41 33 -71 -9 -16 -21 -20 -60 -20 -28 0 -50 4 -50 9 0 6 -9 8 -20 6
-11 -2 -20 1 -20 6 0 6 -4 8 -9 5 -5 -3 -14 1 -21 9 -13 15 -35 21 -27 8 3 -5
-3 -16 -12 -25 -17 -17 -19 -17 -54 1 -34 18 -38 18 -46 3 -5 -10 -10 -21 -11
-27 -2 -5 -7 -20 -13 -32 -8 -19 -6 -26 14 -42 13 -11 38 -23 54 -26 17 -4 35
-9 40 -11 6 -2 23 -6 39 -9 16 -3 33 -8 38 -11 4 -3 8 0 8 6 0 7 5 8 13 3 18
-11 50 -11 66 1 12 9 13 8 6 -3 -6 -11 -5 -12 6 -5 8 4 23 10 34 11 11 2 36 9
55 15 19 7 38 11 43 10 4 -1 7 2 7 7 0 5 16 12 35 15 19 4 35 11 35 17 0 6 3
8 8 6 4 -2 19 8 34 24 16 17 22 30 15 33 -7 2 -4 5 5 5 11 1 15 6 12 16 -4 8
-2 15 3 15 8 0 8 29 1 97 -1 7 -6 11 -12 10 -6 -1 -10 4 -9 10 2 7 -11 20 -27
28 -17 9 -30 20 -30 26 0 6 -4 7 -10 4 -5 -3 -10 -1 -10 5 0 6 -5 8 -10 5 -6
-4 -16 -2 -23 3 -7 5 -20 8 -30 7 -10 -2 -21 3 -24 11 -4 10 -10 11 -24 3 -14
-7 -19 -6 -19 2 0 6 -9 9 -20 6 -12 -3 -20 0 -20 8 0 7 -8 11 -17 9 -30 -7
-54 21 -56 64 l-2 39 45 -2 c55 -3 79 -9 118 -29 29 -15 30 -14 37 7 4 12 7
26 6 30 -2 9 64 1 82 -10 6 -3 7 -1 3 5 -4 7 -2 12 4 12 6 0 8 5 5 10 -3 6 -2
10 2 10 5 0 9 8 9 18 1 9 3 23 5 31 3 9 -7 14 -30 17 -19 2 -37 8 -40 12 -4 4
-15 8 -26 9 -47 5 -60 9 -67 18 -5 6 -8 4 -8 -5 0 -13 -1 -13 -10 0 -9 13 -10
13 -10 0 0 -13 -1 -13 -10 0 -9 13 -10 13 -10 0 0 -13 -1 -13 -10 0 -6 9 -10
10 -10 3z"/>
<path d="M2834 2981 c-3 -3 -26 -7 -51 -8 -123 -8 -212 -113 -302 -356 -35
-92 -90 -275 -121 -393 -10 -42 -10 -42 -83 -59 -39 -10 -76 -21 -82 -25 -5
-4 -71 -8 -145 -9 -74 -1 -156 -4 -182 -7 l-48 -6 0 -244 0 -244 55 0 c41 0
55 4 55 14 0 9 10 14 28 14 15 0 32 0 37 1 6 0 9 24 8 53 l-2 53 42 2 c45 3
159 38 192 60 36 24 40 16 40 -84 0 -98 16 -163 39 -163 17 0 32 13 45 38 12
23 43 31 38 10 -1 -7 9 -13 22 -14 18 -1 26 7 37 32 8 19 19 34 24 34 6 0 9 3
8 8 -3 12 14 57 25 64 6 3 12 14 13 22 1 9 -2 14 -7 10 -5 -3 -6 -11 -2 -17 4
-8 1 -7 -9 1 -9 7 -18 9 -20 4 -1 -5 -13 -12 -25 -16 -21 -7 -22 -5 -18 35 2
23 7 50 10 60 4 11 9 34 11 52 3 18 7 41 8 52 2 11 4 20 5 20 3 0 7 17 16 59
11 51 14 52 248 52 l218 0 5 -25 c69 -299 189 -640 216 -613 5 5 10 41 11 80
1 40 5 72 9 72 7 0 22 -20 23 -30 2 -15 47 -90 54 -90 4 0 7 57 5 128 -4 141
-5 152 -29 277 -3 17 -7 39 -8 50 -1 11 -5 23 -10 26 -4 3 -8 24 -10 47 -1 23
-5 42 -9 42 -4 0 -6 15 -5 33 2 30 31 65 50 59 4 -1 7 3 7 9 0 5 4 8 9 4 5 -3
12 -2 15 3 4 7 -10 11 -51 14 -7 1 -13 5 -13 9 0 4 -8 5 -19 2 -17 -4 -33 9
-37 32 -8 40 -13 63 -22 85 -5 14 -7 31 -5 38 3 6 0 12 -5 12 -5 0 -12 15 -15
33 -3 17 -8 44 -11 60 -6 27 -6 27 44 27 38 0 50 4 50 15 0 11 7 14 23 11 39
-7 50 8 50 63 l-1 51 39 1 c49 2 43 1 117 24 34 11 62 24 62 28 0 5 5 5 10 2
6 -3 10 -1 10 5 0 6 4 9 9 6 4 -3 13 6 19 19 7 14 16 25 22 25 6 0 9 4 5 9 -3
5 -2 12 3 15 13 8 14 87 0 120 -11 28 -69 90 -86 92 -4 0 -20 4 -37 9 -36 10
-275 13 -275 3 0 -4 -19 -8 -42 -10 l-43 -3 -1 -185 c-1 -102 -2 -188 -3 -192
-3 -20 -19 -5 -26 25 -4 17 -9 37 -11 42 -2 6 -5 17 -6 25 -2 8 -7 21 -11 28
-5 6 -5 17 -2 22 3 6 1 10 -5 10 -7 0 -10 7 -6 15 3 8 1 15 -4 15 -6 0 -10 11
-10 23 0 13 -3 27 -7 31 -4 3 -8 13 -10 21 -4 22 -11 49 -13 55 -1 3 -2 9 -1
13 1 5 -2 6 -7 3 -5 -3 -16 8 -26 25 -9 16 -14 29 -11 29 3 0 0 6 -6 13 -12
13 -84 18 -95 8z m542 -136 c20 -16 26 -30 26 -58 0 -53 -23 -76 -75 -73 l-42
1 -2 78 -1 78 34 -3 c18 -1 46 -11 60 -23z m-582 -142 c37 -115 127 -465 120
-472 -3 -3 -56 -7 -117 -8 -62 -1 -142 -4 -179 -7 -61 -4 -67 -3 -65 15 1 10
4 19 7 19 3 0 7 12 8 28 1 15 6 28 11 30 5 2 7 12 4 22 -3 12 0 20 8 20 7 0
10 3 6 6 -3 4 0 22 8 40 8 19 11 34 8 34 -3 0 0 6 6 13 6 8 8 17 4 20 -3 4 -1
7 5 7 6 0 9 7 6 15 -4 8 -1 15 5 15 6 0 8 7 5 15 -4 8 -1 15 5 15 7 0 11 6 9
13 -1 6 3 22 10 35 7 12 10 22 6 22 -4 0 1 10 12 22 10 12 14 18 7 15 -6 -4
-2 12 10 35 12 24 25 45 30 46 4 2 5 8 1 13 -3 5 0 9 6 9 6 0 8 5 5 10 -3 6
-1 10 5 10 6 0 8 5 5 10 -3 6 -2 10 4 10 5 0 21 -35 35 -77z m-505 -609 c23
-12 31 -22 29 -37 -3 -21 -28 -37 -28 -18 0 6 -9 20 -20 31 -17 17 -27 40 -17
40 2 0 18 -7 36 -16z m-214 -78 c23 -10 37 -24 42 -43 17 -66 -11 -105 -71
-101 l-41 3 -1 70 c-1 39 1 73 3 78 6 11 30 9 68 -7z m309 -156 c-12 -79 -23
-121 -33 -125 -10 -4 -12 1 -7 17 3 13 16 71 28 131 11 59 23 105 26 102 3 -2
-3 -59 -14 -125z"/>
<path d="M3810 2968 c0 -4 -19 -8 -41 -10 l-42 -3 -84 -190 c-46 -104 -94
-212 -107 -240 l-23 -50 55 -3 c42 -2 58 1 64 12 6 10 19 14 37 12 23 -2 31 2
41 23 7 14 10 26 8 27 -1 0 2 7 9 15 9 11 33 14 90 13 43 -1 80 -2 84 -3 3 0
13 -23 23 -51 l18 -50 59 0 c42 0 58 4 57 13 -2 8 9 12 33 12 38 -1 44 10 20
39 -7 9 -11 16 -7 16 4 0 -1 11 -10 25 -9 14 -12 25 -8 25 5 0 3 4 -4 9 -7 4
-14 14 -16 22 -1 8 -11 32 -21 54 -11 22 -20 42 -21 45 0 3 -7 19 -14 35 -7
17 -13 33 -12 38 1 4 -3 7 -9 7 -5 0 -7 5 -4 10 3 6 1 10 -6 10 -7 0 -9 3 -6
7 4 3 2 12 -4 20 -6 7 -8 13 -5 13 4 0 -2 14 -14 31 -12 16 -20 33 -17 36 4 3
-1 13 -10 21 -16 16 -113 25 -113 10z m28 -241 c18 -50 15 -57 -22 -55 -31 1
-34 4 -29 27 2 14 9 29 15 32 6 4 7 12 4 18 -4 6 -1 11 6 11 8 0 19 -15 26
-33z"/>
<path d="M675 2950 c-94 -25 -139 -44 -210 -92 -119 -80 -219 -211 -266 -348
-31 -92 -37 -277 -12 -374 19 -74 28 -84 56 -64 16 12 16 16 1 63 -24 74 -24
263 0 335 93 277 313 442 585 441 85 -1 96 -2 178 -28 173 -53 328 -206 387
-383 35 -107 43 -274 16 -345 -6 -16 -10 -30 -9 -30 6 0 -27 -85 -49 -125
-156 -285 -499 -397 -788 -256 -39 19 -88 51 -110 70 l-39 36 92 0 c91 0 93 0
89 23 -3 12 -5 25 -5 28 -1 4 -62 6 -136 6 -102 -1 -135 -4 -136 -14 -4 -59
-1 -243 4 -256 6 -15 30 -18 43 -4 4 3 6 42 5 87 -1 44 1 80 4 80 4 0 25 -15
48 -32 78 -61 144 -93 244 -119 85 -21 233 -26 298 -8 236 61 410 224 487 454
20 60 23 90 23 205 -1 120 -4 144 -27 211 -77 220 -229 367 -448 433 -84 26
-240 28 -325 6z"/>
<path d="M980 2652 c-6 -2 -10 -117 -10 -315 l0 -312 113 0 112 0 1 308 c1
209 -2 310 -10 314 -11 7 -188 11 -206 5z"/>
<path d="M681 2255 c0 -169 3 -225 12 -226 7 -1 58 -2 115 -3 l102 -2 0 228 0
228 -114 0 -115 0 0 -225z"/>
<path d="M397 2273 c-6 -13 -2 -227 5 -238 4 -6 51 -10 114 -10 l108 0 -1 108
c-1 59 -2 116 -2 127 -1 19 -8 20 -110 20 -61 0 -112 -3 -114 -7z"/>
<path d="M3410 2128 c0 -5 -20 -8 -45 -8 l-45 0 0 -245 0 -246 141 2 c136 1
185 9 269 46 8 3 22 5 30 4 8 -2 12 1 7 5 -9 10 44 45 56 37 6 -3 7 -1 3 5 -3
6 2 15 11 21 10 6 14 11 9 11 -6 0 -1 7 10 16 10 8 13 12 5 9 -9 -5 -8 1 4 19
24 36 31 33 38 -15 7 -54 49 -114 96 -138 49 -25 134 -32 197 -14 27 7 57 15
66 17 9 3 27 10 40 17 13 7 27 12 31 11 5 -1 7 1 4 5 -5 11 30 43 38 35 4 -4
6 -2 5 3 -4 19 0 36 8 31 12 -7 14 24 16 208 l1 169 -47 2 c-26 0 -45 -3 -42
-7 3 -4 -15 -8 -40 -8 l-46 0 -1 -142 c0 -79 -3 -156 -5 -173 -6 -41 -74 -100
-74 -64 0 5 -4 7 -10 4 -11 -7 -42 26 -48 52 -2 10 -5 87 -7 171 -1 84 -5 155
-8 159 -10 9 -88 10 -93 1 -3 -4 -24 -8 -47 -8 l-42 0 0 -80 c1 -64 -2 -80
-14 -80 -8 0 -12 3 -8 6 3 3 -5 24 -19 45 -13 21 -24 43 -24 49 0 6 -5 8 -10
5 -6 -3 -13 1 -16 9 -3 9 -10 13 -15 10 -5 -3 -9 0 -9 6 0 6 -4 9 -9 6 -5 -4
-11 -2 -13 4 -2 6 -14 13 -28 16 -14 3 -36 8 -50 11 -39 8 -270 9 -270 1z
m224 -127 c43 -27 61 -63 61 -126 0 -93 -44 -138 -134 -139 l-56 -1 -1 140 c0
77 2 144 4 148 7 14 91 -1 126 -22z"/>
</g>
</svg>
